<?xml version="1.0" encoding="UTF-8"?>
<svg id="Red" xmlns="http://www.w3.org/2000/svg" xmlns:xlink="http://www.w3.org/1999/xlink" viewBox="0 0 275.54 110.05">
  <defs>
    <filter id="drop-shadow-1" filterUnits="userSpaceOnUse">
      <feOffset dx=".72" dy=".72"/>
      <feGaussianBlur result="blur" stdDeviation=".72"/>
      <feFlood flood-color="#231f20" flood-opacity="1"/>
      <feComposite in2="blur" operator="in"/>
      <feComposite in="SourceGraphic"/>
    </filter>
    <filter id="drop-shadow-2" filterUnits="userSpaceOnUse">
      <feOffset dx=".72" dy=".72"/>
      <feGaussianBlur result="blur-2" stdDeviation=".72"/>
      <feFlood flood-color="#231f20" flood-opacity="1"/>
      <feComposite in2="blur-2" operator="in"/>
      <feComposite in="SourceGraphic"/>
    </filter>
    <filter id="drop-shadow-3" filterUnits="userSpaceOnUse">
      <feOffset dx=".72" dy=".72"/>
      <feGaussianBlur result="blur-3" stdDeviation=".72"/>
      <feFlood flood-color="#231f20" flood-opacity="1"/>
      <feComposite in2="blur-3" operator="in"/>
      <feComposite in="SourceGraphic"/>
    </filter>
  </defs>
  <g style="fill: none; filter: url(#drop-shadow-1);">
    <rect x="22.2" y="38.66" width="1.7" height="10.8" style="fill: #fff;"/>
    <path d="m35.66,49.64l-6.36-8.15c-.18-.24-.41-.54-.53-.83h-.08c0,.22.02.67.02,1.09v7.72h-1.42v-10.76l1.82-.13.13.08,5.35,7.04c.17.23.66.83.75,1.13h.07c0-.29-.02-.83-.02-1.21v-6.96h1.42v10.98h-1.14Z" style="fill: #fff;"/>
    <polygon points="44.47 39.89 44.47 49.46 42.77 49.46 42.77 39.89 38.7 39.89 38.7 38.66 48.52 38.66 48.52 39.89 44.47 39.89" style="fill: #fff;"/>
    <g>
      <path d="m57.1,49.46h-6.68v-10.81h6.48v1.22h-4.78v3.2h4.26v1.23h-4.26v3.43c0,.41.21.51.51.51h4.64l-.18,1.22Z" style="fill: #fff;"/>
      <path d="m66.36,49.54l-.12-.08-4.54-5.6h.58c1.42,0,2.78-.56,2.78-2.14,0-1.68-1.22-2.02-2.83-2.02h-.99v9.77h-1.7v-10.81h3.31c1.85,0,4.05.4,4.05,2.77,0,1.65-1.27,2.64-2.68,2.99l4.21,5-2.07.13Z" style="fill: #fff;"/>
      <path d="m78.71,49.64l-6.36-8.15c-.18-.24-.41-.54-.53-.83h-.08c0,.22.02.67.02,1.09v7.72h-1.42v-10.76l1.82-.13.13.08,5.35,7.04c.17.23.66.83.74,1.13h.07c0-.29-.02-.83-.02-1.21v-6.96h1.42v10.98h-1.14Z" style="fill: #fff;"/>
      <path d="m87.29,41.57c-.18-.47-.36-.95-.4-1.38h-.06c-.05.43-.28.98-.46,1.41l-1.42,3.41h3.65l-1.31-3.44Zm3.12,7.97l-.13-.08-1.27-3.38h-4.48l-1.4,3.38-.13.08-1.3-.13,4.74-11.04h1.29l4.38,11.04-1.69.13Z" style="fill: #fff;"/>
    </g>
    <polygon points="97.05 39.89 97.05 49.46 95.35 49.46 95.35 39.89 91.28 39.89 91.28 38.66 101.1 38.66 101.1 39.89 97.05 39.89" style="fill: #fff;"/>
    <rect x="103.04" y="38.66" width="1.7" height="10.8" style="fill: #fff;"/>
    <g>
      <path d="m112.61,39.52c-1.72,0-3.65.96-3.65,4.54s1.8,4.48,3.67,4.48,3.67-1.06,3.67-4.48-1.85-4.54-3.69-4.54m.02,10.2c-3.27,0-5.52-1.94-5.52-5.65s2.74-5.71,5.52-5.71c2.97,0,5.52,1.74,5.52,5.71,0,3.27-2.48,5.65-5.52,5.65" style="fill: #fff;"/>
      <path d="m128.9,49.64l-6.36-8.15c-.18-.24-.42-.54-.53-.83h-.08c0,.22.02.67.02,1.09v7.72h-1.42v-10.76l1.82-.13.13.08,5.36,7.04c.17.23.66.83.75,1.13h.07c0-.29-.02-.83-.02-1.21v-6.96h1.42v10.98h-1.14Z" style="fill: #fff;"/>
      <path d="m137.48,41.57c-.18-.47-.36-.95-.4-1.38h-.07c-.05.43-.28.98-.46,1.41l-1.42,3.41h3.65l-1.3-3.44Zm3.12,7.97l-.13-.08-1.27-3.38h-4.48l-1.4,3.38-.13.08-1.31-.13,4.74-11.04h1.29l4.38,11.04-1.69.13Z" style="fill: #fff;"/>
      <path d="m150.79,49.46h-6.68v-10.81h1.7v9.08c0,.41.22.51.51.51h4.65l-.18,1.22Z" style="fill: #fff;"/>
      <path d="m163.94,49.54l-.12-.08-4.54-5.6h.58c1.42,0,2.78-.56,2.78-2.14,0-1.68-1.22-2.02-2.82-2.02h-.99v9.77h-1.7v-10.81h3.3c1.85,0,4.05.4,4.05,2.77,0,1.65-1.27,2.64-2.68,2.99l4.21,5-2.06.13Z" style="fill: #fff;"/>
      <path d="m174.59,49.46h-6.68v-10.81h6.48v1.22h-4.77v3.2h4.26v1.23h-4.26v3.43c0,.41.21.51.51.51h4.64l-.18,1.22Z" style="fill: #fff;"/>
      <path d="m181.54,41.57c-.18-.47-.36-.95-.4-1.38h-.06c-.05.43-.28.98-.46,1.41l-1.42,3.41h3.65l-1.31-3.44Zm3.13,7.97l-.13-.08-1.27-3.38h-4.48l-1.41,3.38-.13.08-1.31-.13,4.74-11.04h1.29l4.38,11.04-1.68.13Z" style="fill: #fff;"/>
      <path d="m194.85,49.46h-6.68v-10.81h1.7v9.08c0,.41.21.51.51.51h4.64l-.18,1.22Z" style="fill: #fff;"/>
      <path d="m207.86,49.46h-6.68v-10.81h6.48v1.22h-4.78v3.2h4.26v1.23h-4.26v3.43c0,.41.22.51.51.51h4.64l-.18,1.22Z" style="fill: #fff;"/>
      <path d="m212.68,49.69c-1.07,0-2.1-.24-2.93-.67l.5-1.23c.53.32,1.5.69,2.53.69,1.16,0,2.5-.5,2.5-1.78,0-1.11-.98-1.63-1.9-2.02l-1.35-.58c-1.12-.48-2.13-1.25-2.13-2.66,0-1.92,1.89-3.06,3.82-3.06,1.04,0,1.9.24,2.68.64l-.58,1.3c-.48-.34-1.37-.72-2.28-.72-1.29,0-2.07.55-2.07,1.41s.75,1.28,1.75,1.73l1.47.64c1.11.48,2.21,1.41,2.21,2.82,0,2.19-2.03,3.49-4.21,3.49" style="fill: #fff;"/>
    </g>
    <polygon points="223.82 39.89 223.82 49.46 222.12 49.46 222.12 39.89 218.05 39.89 218.05 38.66 227.87 38.66 227.87 39.89 223.82 39.89" style="fill: #fff;"/>
    <path d="m232.51,41.57c-.18-.47-.36-.95-.4-1.38h-.07c-.05.43-.28.98-.46,1.41l-1.42,3.41h3.65l-1.31-3.44Zm3.12,7.97l-.13-.08-1.27-3.38h-4.48l-1.41,3.38-.13.08-1.31-.13,4.74-11.04h1.29l4.38,11.04-1.68.13Z" style="fill: #fff;"/>
    <polygon points="242.28 39.89 242.28 49.46 240.57 49.46 240.57 39.89 236.51 39.89 236.51 38.66 246.32 38.66 246.32 39.89 242.28 39.89" style="fill: #fff;"/>
    <g>
      <path d="m254.9,49.46h-6.68v-10.81h6.48v1.22h-4.78v3.2h4.26v1.23h-4.26v3.43c0,.41.21.51.51.51h4.64l-.18,1.22Z" style="fill: #fff;"/>
      <path d="m254.84,24.24c1.14,4.25,4.93,6.73,9.16,6.73,3.63,0,7.48-1.86,7.48-5.63,0-6.87-17.4-8.97-17.4-17.33,0-3.96,4.12-6.92,9.65-6.92,4.55,0,5.47,1.19,7.37,1.19.43,0,.65-.09.98-.48h.86l.92,6.06h-.92c-1.52-3.44-4.99-5.63-8.73-5.63s-6.07,1.81-6.07,4.49c0,6.78,17.4,8.59,17.4,17.37,0,4.68-4.72,8.16-11.06,8.16-2.98,0-6.78-1.29-7.54-1.29-.49,0-.87.24-1.08.52h-.92l-1.14-7.25h1.03Zm-10.78-14.13c2.71-1.38,4.18-3.06,4.18-4.77,0-.57-.21-1-.76-1-.49,0-.71.14-1.3.14-1.41,0-2.44-.9-2.44-2.15s1.3-2.34,2.93-2.34c2.17,0,3.79,1.67,3.79,3.96,0,2.96-2.43,5.82-6.01,7.01l-.38-.86Zm-8.34,10.64h-1.03c-.43-3.39-1.46-3.77-3.68-3.77h-9.16v10.17c0,2.19.92,2.62,2.93,2.62h8.35c3.79,0,4.93-1.29,6.29-5.39h.98l-.87,7.11h-28.78v-.9h1.52c4.34,0,5.1-1.05,5.1-3.91V6.54c0-2.67-.71-3.82-4.34-3.82h-1.19v-.91h26.02l.43,6.63h-.97c-.7-4.06-2.06-4.92-4.01-4.92h-11.44v11.74h9.7c1.95,0,2.87-.81,3.14-3.58h1.03v9.07Zm-27.58,10.74h-13.17v-.9c3.36-.14,4.06-.91,4.06-4.11V6.16c0-2.58-1.03-3.29-4.06-3.44v-.91h13.17v.91c-3.42,0-4.61.67-4.61,3.87v20.24c0,2.81.87,3.77,4.61,3.77v.9Zm-31.7-4.39c0,2.58.98,3.48,4.28,3.48h2.01v.9h-17.07v-.9h2c3.31,0,4.29-.91,4.29-3.48V3.53h-9.43c-2.17,0-3.14,1.1-3.96,5.3h-.98l.87-7.73h1.03c.06.29.27.48.6.57.33.1.71.14,1.09.14h26.07c.76,0,1.57-.14,1.68-.72h1.03l.87,7.73h-.98c-.81-4.2-1.79-5.3-3.96-5.3h-9.43v23.58Zm-41.57-2.86c1.14,4.25,4.93,6.73,9.16,6.73,3.63,0,7.48-1.86,7.48-5.63,0-6.87-17.4-8.97-17.4-17.33,0-3.96,4.12-6.92,9.65-6.92,4.55,0,5.47,1.19,7.37,1.19.43,0,.65-.09.97-.48h.87l.92,6.06h-.92c-1.52-3.44-4.99-5.63-8.73-5.63s-6.07,1.81-6.07,4.49c0,6.78,17.4,8.59,17.4,17.37,0,4.68-4.72,8.16-11.06,8.16-2.98,0-6.77-1.29-7.53-1.29-.48,0-.87.24-1.08.52h-.92l-1.14-7.25h1.03Zm-5.84,7.25h-13.17v-.9c3.36-.14,4.06-.91,4.06-4.11V6.16c0-2.58-1.03-3.29-4.06-3.44v-.91h13.17v.91c-3.42,0-4.61.67-4.61,3.87v20.24c0,2.81.87,3.77,4.61,3.77v.9Zm-39.89-13.84c.7.14,1.9.38,2.93.38,5.91,0,9.7-3.53,9.7-8.35,0-3.72-1.68-7.4-8.89-7.4-1.25,0-2.44,0-3.74.19v15.18Zm0,.9v8.35c0,2.67.92,3.68,4.34,3.68h1.79v.9h-15.01v-.9h.76c2.82,0,3.63-.53,3.63-2.77V5.25c0-1.77-.65-2.53-2.55-2.53h-2.71v-.91c1.52-.05,4.17-.19,6.83-.29,2.65-.1,5.26-.14,6.72-.14,11.33,0,13.93,4.77,13.93,8.45,0,5.58-5.04,7.63-6.4,8.06l6.45,8.59c.76,1,2.12,2.44,2.98,3.29.76.67,1.46,1.05,3.03,1.48v.86h-.7c-5.26,0-8.4-2.34-13.98-10.45-.98-1.43-1.63-2.15-2.28-2.82,0,0-3.9.33-6.83-.29m-43.03-1.24v9.07c0,3.1.71,4.2,4.34,4.2h.16v.9h-13.61v-.9h.33c3.2,0,4.28-.76,4.28-3.48V6.11c0-2.48-.92-3.2-3.9-3.39v-.91h12.9v.91c-3.85,0-4.5.91-4.5,4.58v8.3h21.25V6.2c0-2.53-.92-3.48-4.28-3.48h-1.03v-.91h13.93v.91c-3.25.1-4.12.95-4.12,3.91v19.81c0,3.39,1.09,4.15,4.34,4.15h.54v.9h-15.34v-.9h1.68c3.53,0,4.28-1.1,4.28-3.58v-9.69h-21.25Zm-13.97-7.68c-1.79-4.44-6.45-7.35-12.36-7.35-9.05,0-14.69,5.78-14.69,13.79,0,8.64,7.05,14.99,15.28,14.99,4.28,0,9.54-1.29,13.22-7.06h1.03c-.71,2.15-2.17,5.11-3.47,6.97-3.47-.43-5.86,1.29-12.25,1.29C7.91,32.26,0,25.87,0,17.04S8.13,1.1,19.46,1.1c6.83,0,9.76,1.91,11.44,1.91.6,0,.87-.14.98-.29h.81l.49,6.92h-1.03Z" style="fill: #fff;"/>
    </g>
    <rect x="22.2" y="38.66" width="1.7" height="10.8" style="fill: #fff;"/>
    <path d="m35.66,49.64l-6.36-8.15c-.18-.24-.41-.54-.53-.83h-.08c0,.22.02.67.02,1.09v7.72h-1.42v-10.76l1.82-.13.13.08,5.35,7.04c.17.23.66.83.75,1.13h.07c0-.29-.02-.83-.02-1.21v-6.96h1.42v10.98h-1.14Z" style="fill: #fff;"/>
    <polygon points="44.47 39.89 44.47 49.46 42.77 49.46 42.77 39.89 38.7 39.89 38.7 38.66 48.52 38.66 48.52 39.89 44.47 39.89" style="fill: #fff;"/>
    <g>
      <path d="m57.1,49.46h-6.68v-10.81h6.48v1.22h-4.78v3.2h4.26v1.23h-4.26v3.43c0,.41.21.51.51.51h4.64l-.18,1.22Z" style="fill: #fff;"/>
      <path d="m66.36,49.54l-.12-.08-4.54-5.6h.58c1.42,0,2.78-.56,2.78-2.14,0-1.68-1.22-2.02-2.83-2.02h-.99v9.77h-1.7v-10.81h3.31c1.85,0,4.05.4,4.05,2.77,0,1.65-1.27,2.64-2.68,2.99l4.21,5-2.07.13Z" style="fill: #fff;"/>
      <path d="m78.71,49.64l-6.36-8.15c-.18-.24-.41-.54-.53-.83h-.08c0,.22.02.67.02,1.09v7.72h-1.42v-10.76l1.82-.13.13.08,5.35,7.04c.17.23.66.83.74,1.13h.07c0-.29-.02-.83-.02-1.21v-6.96h1.42v10.98h-1.14Z" style="fill: #fff;"/>
      <path d="m87.29,41.57c-.18-.47-.36-.95-.4-1.38h-.06c-.05.43-.28.98-.46,1.41l-1.42,3.41h3.65l-1.31-3.44Zm3.12,7.97l-.13-.08-1.27-3.38h-4.48l-1.4,3.38-.13.08-1.3-.13,4.74-11.04h1.29l4.38,11.04-1.69.13Z" style="fill: #fff;"/>
    </g>
    <polygon points="97.05 39.89 97.05 49.46 95.35 49.46 95.35 39.89 91.28 39.89 91.28 38.66 101.1 38.66 101.1 39.89 97.05 39.89" style="fill: #fff;"/>
    <rect x="103.04" y="38.66" width="1.7" height="10.8" style="fill: #fff;"/>
    <g>
      <path d="m112.61,39.52c-1.72,0-3.65.96-3.65,4.54s1.8,4.48,3.67,4.48,3.67-1.06,3.67-4.48-1.85-4.54-3.69-4.54m.02,10.2c-3.27,0-5.52-1.94-5.52-5.65s2.74-5.71,5.52-5.71c2.97,0,5.52,1.74,5.52,5.71,0,3.27-2.48,5.65-5.52,5.65" style="fill: #fff;"/>
      <path d="m128.9,49.64l-6.36-8.15c-.18-.24-.42-.54-.53-.83h-.08c0,.22.02.67.02,1.09v7.72h-1.42v-10.76l1.82-.13.13.08,5.36,7.04c.17.23.66.83.75,1.13h.07c0-.29-.02-.83-.02-1.21v-6.96h1.42v10.98h-1.14Z" style="fill: #fff;"/>
      <path d="m137.48,41.57c-.18-.47-.36-.95-.4-1.38h-.07c-.05.43-.28.98-.46,1.41l-1.42,3.41h3.65l-1.3-3.44Zm3.12,7.97l-.13-.08-1.27-3.38h-4.48l-1.4,3.38-.13.08-1.31-.13,4.74-11.04h1.29l4.38,11.04-1.69.13Z" style="fill: #fff;"/>
      <path d="m150.79,49.46h-6.68v-10.81h1.7v9.08c0,.41.22.51.51.51h4.65l-.18,1.22Z" style="fill: #fff;"/>
      <path d="m163.94,49.54l-.12-.08-4.54-5.6h.58c1.42,0,2.78-.56,2.78-2.14,0-1.68-1.22-2.02-2.82-2.02h-.99v9.77h-1.7v-10.81h3.3c1.85,0,4.05.4,4.05,2.77,0,1.65-1.27,2.64-2.68,2.99l4.21,5-2.06.13Z" style="fill: #fff;"/>
      <path d="m174.59,49.46h-6.68v-10.81h6.48v1.22h-4.77v3.2h4.26v1.23h-4.26v3.43c0,.41.21.51.51.51h4.64l-.18,1.22Z" style="fill: #fff;"/>
      <path d="m181.54,41.57c-.18-.47-.36-.95-.4-1.38h-.06c-.05.43-.28.98-.46,1.41l-1.42,3.41h3.65l-1.31-3.44Zm3.13,7.97l-.13-.08-1.27-3.38h-4.48l-1.41,3.38-.13.08-1.31-.13,4.74-11.04h1.29l4.38,11.04-1.68.13Z" style="fill: #fff;"/>
      <path d="m194.85,49.46h-6.68v-10.81h1.7v9.08c0,.41.21.51.51.51h4.64l-.18,1.22Z" style="fill: #fff;"/>
      <path d="m207.86,49.46h-6.68v-10.81h6.48v1.22h-4.78v3.2h4.26v1.23h-4.26v3.43c0,.41.22.51.51.51h4.64l-.18,1.22Z" style="fill: #fff;"/>
      <path d="m212.68,49.69c-1.07,0-2.1-.24-2.93-.67l.5-1.23c.53.32,1.5.69,2.53.69,1.16,0,2.5-.5,2.5-1.78,0-1.11-.98-1.63-1.9-2.02l-1.35-.58c-1.12-.48-2.13-1.25-2.13-2.66,0-1.92,1.89-3.06,3.82-3.06,1.04,0,1.9.24,2.68.64l-.58,1.3c-.48-.34-1.37-.72-2.28-.72-1.29,0-2.07.55-2.07,1.41s.75,1.28,1.75,1.73l1.47.64c1.11.48,2.21,1.41,2.21,2.82,0,2.19-2.03,3.49-4.21,3.49" style="fill: #fff;"/>
    </g>
    <polygon points="223.82 39.89 223.82 49.46 222.12 49.46 222.12 39.89 218.05 39.89 218.05 38.66 227.87 38.66 227.87 39.89 223.82 39.89" style="fill: #fff;"/>
    <path d="m232.51,41.57c-.18-.47-.36-.95-.4-1.38h-.07c-.05.43-.28.98-.46,1.41l-1.42,3.41h3.65l-1.31-3.44Zm3.12,7.97l-.13-.08-1.27-3.38h-4.48l-1.41,3.38-.13.08-1.31-.13,4.74-11.04h1.29l4.38,11.04-1.68.13Z" style="fill: #fff;"/>
    <polygon points="242.28 39.89 242.28 49.46 240.57 49.46 240.57 39.89 236.51 39.89 236.51 38.66 246.32 38.66 246.32 39.89 242.28 39.89" style="fill: #fff;"/>
  </g>
  <rect x="22.1" y="61.09" width="232.83" height=".64" style="fill: #fff; filter: url(#drop-shadow-2);"/>
  <text transform="translate(20.88 83.07)" style="fill: #fff; filter: url(#drop-shadow-3); font-family: MyriadPro-Regular, &apos;Myriad Pro&apos;; font-size: 16px;"><tspan x="0" y="0">E</tspan><tspan x="7.87" y="0" style="letter-spacing: -.02em;">x</tspan><tspan x="15.04" y="0">clusi</tspan><tspan x="44.88" y="0" style="letter-spacing: 0em;">v</tspan><tspan x="52.42" y="0">e</tspan><tspan x="60.43" y="0" style="letter-spacing: .52em;"> </tspan><tspan x="72.15" y="0" style="letter-spacing: 0em;">A</tspan><tspan x="81.83" y="0">ffili</tspan><tspan x="102.39" y="0" style="letter-spacing: 0em;">a</tspan><tspan x="110.04" y="0" style="letter-spacing: 0em;">t</tspan><tspan x="115.24" y="0" style="letter-spacing: 0em;">e</tspan><tspan x="123.26" y="0" style="letter-spacing: .52em;"> </tspan><tspan x="134.98" y="0">in</tspan><tspan x="147.6" y="0" style="letter-spacing: .52em;"> </tspan><tspan x="159.33" y="0" style="letter-spacing: -.03em;">F</tspan><tspan x="166.7" y="0" style="letter-spacing: 0em;">r</tspan><tspan x="171.85" y="0">an</tspan><tspan x="188.45" y="0" style="letter-spacing: 0em;">c</tspan><tspan x="195.52" y="0">e</tspan><tspan x="203.53" y="0" style="letter-spacing: .52em;"> </tspan><tspan x="215.26" y="0" style="letter-spacing: -.01em;">f</tspan><tspan x="219.72" y="0">or</tspan><tspan x="62.65" y="19.2" xml:space="preserve">the  </tspan><tspan x="91.63" y="19.2" style="letter-spacing: 0em;">R</tspan><tspan x="100.3" y="19.2">é</tspan><tspan x="108.32" y="19.2" style="letter-spacing: 0em;">g</tspan><tspan x="117.17" y="19.2" xml:space="preserve">ion  Sud</tspan></text>
</svg>