<?xml version="1.0" encoding="UTF-8"?>
<svg id="Calque_1" data-name="Calque 1" xmlns="http://www.w3.org/2000/svg" viewBox="0 0 1000 1000">
  <rect width="1000" height="1000" style="fill: #cd1719;"/>
  <path d="m139.1,650.44c44.82,2.77,134.79,7.19,208.45,10.67l3.09,5.29-5.79-.03-275.48-.06L476.34,146.4l133.27,189.7s-62.6-63.38-134.06-63.38c-80.84,0-177.08,115.36-226.72,176.21-40.76,49.97-93.29,121.42-124.77,175.37-4.81,8.28,2.93,25.38,15.04,26.15" style="fill: #fff;"/>
  <path d="m332.21,777.78c103.83,6.42,402.25,19.87,402.25,19.87l-489.04-.12L752.07,150.33l165.91,236.15s-77.94-78.9-166.93-78.9c-100.64,0-220.42,143.59-282.23,219.35-50.71,62.21-116.13,151.13-155.29,218.29-6.06,10.32,3.62,31.61,18.67,32.55" style="fill: #fff;"/>
</svg>