<?xml version="1.0" encoding="UTF-8"?>
<svg id="Calque_1" data-name="Calque 1" xmlns="http://www.w3.org/2000/svg" viewBox="0 0 538.16 538.16">
  <rect width="538.16" height="538.16" style="fill: #a00;"/>
  <g>
    <path d="m262.5,450.53c-3.86,14.39-18.66,22.93-33.06,19.07-14.39-3.86-22.93-18.66-19.07-33.06,3.86-14.4,18.67-22.93,33.06-19.07,14.4,3.87,22.93,18.67,19.07,33.07Z" style="fill: #b6003d;"/>
    <path d="m155.25,244.99c-3.86,14.4-18.67,22.93-33.06,19.07-14.4-3.87-22.93-18.67-19.07-33.06,3.86-14.4,18.67-22.93,33.06-19.07,14.4,3.86,22.93,18.67,19.07,33.06Z" style="fill: #b6003d;"/>
    <path d="m281.41,398.31c-2.8,10.44-13.53,16.63-23.97,13.83-10.43-2.8-16.63-13.54-13.82-23.97,2.8-10.44,13.53-16.62,23.97-13.82,10.44,2.8,16.63,13.53,13.83,23.97Z" style="fill: #b6003d;"/>
    <path d="m303.76,447.8c-2.8,10.44-13.53,16.63-23.97,13.83-10.43-2.8-16.63-13.53-13.82-23.97,2.8-10.44,13.53-16.62,23.97-13.82,10.44,2.8,16.63,13.53,13.83,23.97Z" style="fill: #b6003d;"/>
    <path d="m201.9,434.26c-1.91,7.11-9.22,11.33-16.33,9.42-7.11-1.91-11.32-9.22-9.41-16.33,1.91-7.1,9.22-11.32,16.32-9.41,7.11,1.91,11.32,9.22,9.42,16.33Z" style="fill: #b6003d;"/>
    <path d="m383.8,316.14c-1.36,5.05-6.55,8.05-11.6,6.69-5.05-1.35-8.05-6.55-6.69-11.6,1.35-5.05,6.55-8.04,11.6-6.69,5.05,1.35,8.04,6.55,6.69,11.59Z" style="fill: #b6003d;"/>
    <path d="m282.18,489.23c-2.11,7.87-10.21,12.54-18.08,10.43-7.88-2.11-12.55-10.21-10.43-18.08,2.11-7.87,10.21-12.54,18.09-10.43,7.87,2.11,12.54,10.21,10.43,18.08Z" style="fill: #b6003d;"/>
    <path d="m300.17,408.95c-1.35,5.05-6.55,8.04-11.59,6.69-5.05-1.36-8.05-6.55-6.69-11.6,1.35-5.05,6.55-8.04,11.6-6.69,5.05,1.35,8.04,6.55,6.69,11.59Z" style="fill: #b6003d;"/>
    <path d="m97.09,206.23c-2.62,9.75-12.65,15.54-22.4,12.92-9.75-2.62-15.54-12.65-12.92-22.4,2.62-9.75,12.65-15.54,22.4-12.92,9.75,2.62,15.54,12.65,12.92,22.4Z" style="fill: #b6003d;"/>
    <path d="m165.78,185.88c-4.37,16.28-21.12,25.94-37.4,21.57-16.28-4.37-25.94-21.12-21.57-37.4,4.37-16.28,21.12-25.94,37.4-21.57,16.29,4.37,25.94,21.12,21.57,37.4Z" style="fill: #b6003d;"/>
    <path d="m226.31,319.25c-1.91,7.11-9.22,11.32-16.32,9.42-7.11-1.91-11.32-9.22-9.42-16.33,1.91-7.11,9.22-11.32,16.32-9.41,7.11,1.91,11.32,9.22,9.42,16.32Z" style="fill: #b6003d;"/>
    <path d="m172.99,216.52c-1.39,5.2-6.74,8.28-11.94,6.88-5.2-1.39-8.28-6.74-6.88-11.94,1.39-5.2,6.74-8.28,11.94-6.89,5.2,1.4,8.28,6.74,6.89,11.94Z" style="fill: #b6003d;"/>
    <path d="m401.38,217.51c-2.82,10.52-13.65,16.77-24.17,13.94-10.52-2.82-16.76-13.65-13.94-24.17,2.82-10.52,13.65-16.76,24.17-13.94,10.52,2.82,16.76,13.65,13.94,24.17Z" style="fill: #b6003d;"/>
    <path d="m237.5,382.34c-5.8,21.59-28,34.4-49.59,28.6-21.59-5.79-34.4-28-28.6-49.59,5.8-21.6,28-34.4,49.6-28.61,21.59,5.8,34.4,28,28.6,49.6Z" style="fill: #b6003d;"/>
    <path d="m189.99,309.5c-4.93,18.38-23.84,29.28-42.22,24.35-18.39-4.93-29.29-23.84-24.35-42.22,4.94-18.39,23.84-29.29,42.22-24.35,18.38,4.93,29.29,23.84,24.35,42.22Z" style="fill: #b6003d;"/>
    <path d="m260.37,252.26c-6.48,24.15-31.32,38.47-55.47,31.99-24.15-6.48-38.47-31.32-31.99-55.47,6.48-24.15,31.32-38.47,55.47-31.99,24.15,6.48,38.47,31.32,31.99,55.47Z" style="fill: #b6003d;"/>
    <path d="m223.93,172.34c-3.09,11.5-14.91,18.32-26.42,15.24-11.5-3.09-18.32-14.91-15.23-26.42,3.09-11.5,14.91-18.33,26.42-15.24,11.5,3.09,18.32,14.91,15.23,26.42Z" style="fill: #b6003d;"/>
    <path d="m405.68,274.78c-4.2,15.65-20.3,24.94-35.95,20.74-15.66-4.2-24.94-20.3-20.74-35.95,4.2-15.66,20.3-24.94,35.96-20.74,15.65,4.2,24.94,20.3,20.73,35.96Z" style="fill: #b6003d;"/>
    <path d="m356.62,217.32c-6.48,24.15-31.32,38.47-55.47,31.99-24.15-6.48-38.47-31.32-31.99-55.47,6.49-24.15,31.32-38.47,55.47-31.99,24.15,6.48,38.47,31.31,31.99,55.47Z" style="fill: #b6003d;"/>
    <path d="m351.03,328.98c-8.21,30.59-39.67,48.73-70.26,40.52-30.59-8.21-48.74-39.67-40.52-70.26,8.21-30.6,39.67-48.74,70.26-40.53,30.59,8.21,48.73,39.67,40.52,70.26Z" style="fill: #b6003d;"/>
    <path d="m516.95,146.48c-.36-1.9-2.11-3.21-4.04-3.03C386.12,155.55,229.51-10.18,81.51,52.18c-3.71,1.56-5.57,5.73-4.26,9.53,1.31,3.8,5.34,5.94,9.22,4.89,69.03-18.8,124.07,4.38,197.04,35.14-27.3,36.04-32.34,70.07-31.98,91.59.03,1.62,1.26,2.97,2.88,3.13,1.61.16,3.09-.91,3.44-2.49,10.07-45.72,36.21-70.06,52.12-81.05,70.6,29.63,140.91,56.21,204.33,37.88,1.86-.54,3-2.4,2.64-4.3Z" style="fill: #b6003d;"/>
  </g>
  <g>
    <path d="m158.03,429.14l-13.32,24.01h-4l-13.11-24.01h3.37l11.77,21.42,11.95-21.42h3.34Z" style="fill: #fff;"/>
    <path d="m165.39,453.15h-2.92v-24.01h2.92v24.01Z" style="fill: #fff;"/>
    <path d="m173.88,453.15v-24.01h4.84l22.16,21.71v-21.71h2.92v24.01h-4.78l-22.22-21.82v21.82h-2.92Z" style="fill: #fff;"/>
    <path d="m235.33,439.54v2.41h-20.12v8.78h21.13v2.41h-24.05v-24.01h23.8v2.45h-20.88v7.96h20.12Z" style="fill: #fff;"/>
    <path d="m270.43,429.14l-13.86,13.79v10.22h-2.92v-10.22l-13.82-13.79h4.14l11.12,11.27,11.2-11.27h4.14Z" style="fill: #fff;"/>
    <path d="m274.21,453.15h-3.41l14.19-24.01h3.86l14.31,24.01h-3.34l-3.18-5.4h-19.28l-3.13,5.4Zm4.53-7.81h16.46l-8.29-14.08-8.17,14.08Z" style="fill: #fff;"/>
    <path d="m335.27,436.27c0,2.16-.32,3.64-.95,4.45-.64.8-2.02,1.36-4.16,1.67,1.61.22,2.79.61,3.55,1.17s1.13,1.59,1.13,3.08v6.52h-2.88v-5.33c0-1.78-.38-2.95-1.13-3.53-.76-.58-2.07-.86-3.94-.86h-16.38v9.72h-2.92v-24.01h19.55c2.9,0,4.99.49,6.25,1.46,1.26.97,1.89,2.86,1.89,5.67Zm-3.02-.18c0-1.87-.44-3.09-1.33-3.65s-2.35-.85-4.39-.85h-16.02v9.43h16.09c2.11,0,3.58-.33,4.41-.99.83-.66,1.24-1.97,1.24-3.94Z" style="fill: #fff;"/>
    <path d="m372.46,440.8c0,2.14-.17,4.12-.5,5.96s-.97,3.23-1.91,4.19c-.94.96-2.06,1.57-3.38,1.82s-2.89.38-4.72.38h-19.08v-23.98h20.05c3.89,0,6.45.9,7.69,2.7,1.24,1.8,1.85,4.78,1.85,8.93Zm-3.02.04c0-3.36-.41-5.74-1.24-7.15s-2.8-2.11-5.92-2.11h-16.49v19.15h16.2c3.36,0,5.44-.73,6.25-2.2.8-1.46,1.21-4.03,1.21-7.7Z" style="fill: #fff;"/>
    <path d="m402.09,432.3c-.5-.26-1.42-.47-2.74-.64-1.32-.17-3.02-.25-5.11-.25h-1.01c-1.58,0-3.22.07-4.91.22-1.69.15-2.92.39-3.69.73-.77.34-1.26.8-1.48,1.39-.22.58-.32,1.29-.32,2.12,0,1.48.4,2.49,1.21,3.03.8.54,1.97.8,3.51.8h8.28c.98,0,1.86.01,2.63.04.77.02,1.93.12,3.47.29s2.8.71,3.74,1.63c.95.92,1.42,2.5,1.42,4.72,0,1.46-.23,2.67-.68,3.64s-1.23,1.7-2.32,2.19c-1.09.49-2.41.81-3.96.95-1.55.14-3.23.21-5.06.21h-1.91c-1.8,0-3.15-.02-4.05-.06-.9-.04-2.28-.18-4.14-.43-1.86-.25-3.19-.9-3.98-1.96-.79-1.06-1.19-2.91-1.19-5.55h2.92v.53c0,1.29.11,2.25.34,2.87.23.62.82,1.08,1.76,1.37.95.29,2.21.48,3.8.57s3.14.13,4.68.13c2.5,0,4.6-.11,6.32-.33,1.71-.22,2.88-.63,3.51-1.23.62-.6.94-1.6.94-2.98,0-1.74-.4-2.85-1.2-3.32-.8-.47-2.16-.71-4.08-.71h-5.5l-6.43-.18c-2.25,0-3.99-.43-5.21-1.3-1.22-.86-1.83-2.33-1.83-4.39,0-1.63.26-2.99.79-4.09.53-1.09,1.42-1.87,2.68-2.34,1.26-.47,2.74-.77,4.44-.9,1.7-.13,3.61-.2,5.72-.2,1.75,0,3.01.02,3.79.06.78.04,2.05.15,3.81.34s3.11.82,4.04,1.89c.94,1.08,1.4,2.71,1.4,4.91h-2.92c0-1.16-.13-2.02-.38-2.59s-.62-.97-1.1-1.2Z" style="fill: #fff;"/>
  </g>
  <path d="m199.09,294.51c0-9.13,3.09-13.52,12.87-13.52h18.72c8.89,0,11.34,4.14,11.34,8.98v3.1h-4.29v-1.65c0-6.14-3.79-6.43-8.28-6.43h-16.97c-4.69,0-8.49,1.39-8.49,7.69v13.56c0,6.29,3.8,7.69,8.49,7.69h17.12c6.59,0,8.49-1.4,8.49-6.3v-2.25h4.59v2.46c0,6.54-2.09,10.07-12.22,10.07h-18.47c-9.78,0-12.87-4.39-12.87-13.52v-9.88Z" style="fill: #fff;"/>
  <polygon points="250.55 281.39 255.44 281.39 255.44 296.91 288.08 296.91 288.08 281.39 292.97 281.39 292.97 317.52 288.08 317.52 288.08 300.91 255.44 300.91 255.44 317.52 250.55 317.52 250.55 281.39" style="fill: #fff;"/>
  <path d="m319.98,281.39h6.08l21.46,36.14h-5.55l-4.49-7.64h-28.94l-4.49,7.64h-5.54l21.46-36.14Zm3.04,4l-12.13,20.51h24.26l-12.13-20.51Z" style="fill: #fff;"/>
  <path d="m353.06,281.39h35.48v4h-30.59v11.52h29.4v4h-29.4v12.62h30.79v4h-35.68v-36.14Zm9.38-8.68h4.29v5.59h-4.29v-5.59Zm10.47,0h4.3v5.59h-4.3v-5.59Z" style="fill: #fff;"/>
  <polygon points="396.18 281.39 401.08 281.39 401.08 313.53 429.12 313.53 429.12 317.52 396.18 317.52 396.18 281.39" style="fill: #fff;"/>
  <polygon points="82.08 377.2 122.75 342.26 83.38 342.26 83.38 337.33 132.23 337.33 132.23 341.64 91.37 376.95 133.09 376.95 133.09 381.87 82.08 381.87 82.08 377.2" style="fill: #fff;"/>
  <rect x="141.75" y="337.33" width="6.04" height="44.54" style="fill: #fff;"/>
  <polygon points="159.42 337.33 168.41 337.33 209.19 376.46 209.19 337.33 215.22 337.33 215.22 381.87 206.23 381.87 165.44 342.75 165.44 381.87 159.42 381.87 159.42 337.33" style="fill: #fff;"/>
  <path d="m281.29,365.94c0,12.13-3.94,16.42-15.09,16.42h-24.84c-12.06,0-15.88-5.42-15.88-16.67v-12.18c0-11.25,3.82-16.67,15.88-16.67h22.76c8,0,16.56,1.96,16.56,12.23v1.61h-5.67c0-8.3-2.53-8.91-17.41-8.91h-15.63c-5.79,0-10.46,1.71-10.46,9.48v16.72c0,7.76,4.67,9.48,10.46,9.48h23.57c6.02,0,9.71-2.09,9.71-8.25v-4.49h-22.83v-4.92h28.86v6.15Z" style="fill: #fff;"/>
  <path d="m291.56,337.33h35.63c12.86,0,14.89,4.25,14.89,12.62v3.62c0,6.28-3.58,8.01-8.18,8.44v.12c6.15,1.1,7.63,4.3,7.63,8.36v11.37h-5.66v-9.77c0-6.95-3.4-7.81-8.86-7.81h-29.41v17.58h-6.03v-44.54Zm34.95,22.04c6.71,0,9.55-1.79,9.55-6.47v-4.06c0-5-2.15-6.58-11.02-6.58h-27.44v17.11h28.92Z" style="fill: #fff;"/>
  <path d="m374.13,337.33h7.51l26.46,44.54h-6.84l-5.54-9.41h-35.68l-5.54,9.41h-6.84l26.47-44.54Zm3.76,4.93l-14.96,25.28h29.9l-14.94-25.28Z" style="fill: #fff;"/>
  <polygon points="414.93 337.33 457.37 337.33 457.37 342.26 420.96 342.26 420.96 356.46 455.96 356.46 455.96 361.39 420.96 361.39 420.96 381.87 414.93 381.87 414.93 337.33" style="fill: #fff;"/>
  <path d="m167.27,196.68c10.48.64,31.51,1.68,48.73,2.49l.72,1.24h-1.35s-64.4-.02-64.4-.02l95.13-121.54,31.15,44.34s-14.63-14.81-31.34-14.81c-18.9,0-41.39,26.96-53,41.19-9.53,11.69-21.81,28.38-29.16,41-1.13,1.93.69,5.93,3.51,6.12" style="fill: #fff;"/>
  <path d="m212.41,226.45c24.27,1.5,94.03,4.65,94.03,4.65l-114.32-.03,118.43-151.29,38.78,55.2s-18.22-18.44-39.02-18.44c-23.52,0-51.53,33.56-65.97,51.28-11.85,14.54-27.14,35.32-36.3,51.03-1.42,2.41.85,7.39,4.36,7.6" style="fill: #fff;"/>
  <polygon points="118.49 281.39 126.12 281.39 147.23 311.68 168.34 281.39 175.99 281.39 175.99 317.52 171.09 317.52 171.09 285.78 171 285.78 148.98 317.52 145.49 317.52 123.48 285.78 123.38 285.78 123.38 317.52 118.49 317.52 118.49 281.39" style="fill: #fff;"/>
  <rect x="185.42" y="281.39" width="4.89" height="36.14" style="fill: #fff;"/>
</svg>